<?xml version="1.0" encoding="UTF-8" standalone="no"?>
<!DOCTYPE svg PUBLIC "-//W3C//DTD SVG 1.1//EN"
 "http://www.w3.org/Graphics/SVG/1.1/DTD/svg11.dtd">
<!-- Generated by graphviz version 2.43.0 (0)
 -->
<!-- Title: %3 Pages: 1 -->
<svg width="833pt" height="304pt"
 viewBox="0.00 0.00 833.00 304.00" xmlns="http://www.w3.org/2000/svg" xmlns:xlink="http://www.w3.org/1999/xlink">
<g id="graph0" class="graph" transform="scale(1 1) rotate(0) translate(4 300)">
<title>%3</title>
<polygon fill="#ffffff" stroke="transparent" points="-4,4 -4,-300 829,-300 829,4 -4,4"/>
<!-- ESP32&#45;S3 -->
<g id="node1" class="node">
<title>ESP32&#45;S3</title>
<polygon fill="#f7f9fb" stroke="black" points="76,-264.5 0,-264.5 0,-126.5 76,-126.5 76,-264.5"/>
<polygon fill="#eaf1fc" stroke="transparent" points="0,-126.5 0,-264.5 76,-264.5 76,-126.5 0,-126.5"/>
<polygon fill="#bcd6f7" stroke="transparent" points="0,-241.5 0,-264.5 76,-264.5 76,-241.5 0,-241.5"/>
<polygon fill="none" stroke="black" points="0,-241.5 0,-264.5 76,-264.5 76,-241.5 0,-241.5"/>
<text text-anchor="start" x="4" y="-249.3" font-family="Helvetica,sans-Serif" font-size="14.00">ESP32&#45;S3</text>
<polygon fill="none" stroke="black" points="0,-218.5 0,-241.5 76,-241.5 76,-218.5 0,-218.5"/>
<text text-anchor="start" x="11.5" y="-226.3" font-family="Helvetica,sans-Serif" font-size="14.00">GPIO10</text>
<polygon fill="none" stroke="black" points="0,-195.5 0,-218.5 76,-218.5 76,-195.5 0,-195.5"/>
<text text-anchor="start" x="11.5" y="-203.3" font-family="Helvetica,sans-Serif" font-size="14.00">GPIO11</text>
<polygon fill="none" stroke="black" points="0,-172.5 0,-195.5 76,-195.5 76,-172.5 0,-172.5"/>
<text text-anchor="start" x="11.5" y="-180.3" font-family="Helvetica,sans-Serif" font-size="14.00">GPIO42</text>
<polygon fill="none" stroke="black" points="0,-149.5 0,-172.5 76,-172.5 76,-149.5 0,-149.5"/>
<text text-anchor="start" x="24" y="-157.3" font-family="Helvetica,sans-Serif" font-size="14.00">3V3</text>
<polygon fill="none" stroke="black" points="0,-126.5 0,-149.5 76,-149.5 76,-126.5 0,-126.5"/>
<text text-anchor="start" x="22" y="-134.3" font-family="Helvetica,sans-Serif" font-size="14.00">GND</text>
</g>
<!-- JOYSTICK_HARNESS -->
<g id="node4" class="node">
<title>JOYSTICK_HARNESS</title>
<polygon fill="#f7f9fb" stroke="black" points="529.5,-296 256.5,-296 256.5,-135 529.5,-135 529.5,-296"/>
<polygon fill="#e8e8e8" stroke="transparent" points="257,-272.5 257,-295.5 530,-295.5 530,-272.5 257,-272.5"/>
<polygon fill="none" stroke="black" points="257,-272.5 257,-295.5 530,-295.5 530,-272.5 257,-272.5"/>
<text text-anchor="start" x="324" y="-280.3" font-family="Helvetica,sans-Serif" font-size="14.00">JOYSTICK_HARNESS</text>
<text text-anchor="start" x="319" y="-259.3" font-family="Helvetica,sans-Serif" font-size="14.00"> </text>
<text text-anchor="start" x="259" y="-240.3" font-family="Helvetica,sans-Serif" font-size="14.00">ESP32&#45;S3:GPIO10</text>
<text text-anchor="start" x="388" y="-240.3" font-family="Helvetica,sans-Serif" font-size="14.00"> &#160;&#160;&#160;&#160;&#160;&#160;&#160;&#160;&#160;</text>
<text text-anchor="start" x="439" y="-240.3" font-family="Helvetica,sans-Serif" font-size="14.00">Joystick:VRX</text>
<polygon fill="#000000" stroke="transparent" points="257,-232.5 257,-234.5 530,-234.5 530,-232.5 257,-232.5"/>
<polygon fill="#ffff00" stroke="transparent" points="257,-230.5 257,-232.5 530,-232.5 530,-230.5 257,-230.5"/>
<polygon fill="#000000" stroke="transparent" points="257,-228.5 257,-230.5 530,-230.5 530,-228.5 257,-228.5"/>
<text text-anchor="start" x="259" y="-215.3" font-family="Helvetica,sans-Serif" font-size="14.00">ESP32&#45;S3:GPIO11</text>
<text text-anchor="start" x="388" y="-215.3" font-family="Helvetica,sans-Serif" font-size="14.00"> &#160;&#160;&#160;&#160;&#160;&#160;&#160;&#160;&#160;</text>
<text text-anchor="start" x="440.5" y="-215.3" font-family="Helvetica,sans-Serif" font-size="14.00">Joystick:VRY</text>
<polygon fill="#000000" stroke="transparent" points="257,-207.5 257,-209.5 530,-209.5 530,-207.5 257,-207.5"/>
<polygon fill="#ff8000" stroke="transparent" points="257,-205.5 257,-207.5 530,-207.5 530,-205.5 257,-205.5"/>
<polygon fill="#000000" stroke="transparent" points="257,-203.5 257,-205.5 530,-205.5 530,-203.5 257,-203.5"/>
<text text-anchor="start" x="271.5" y="-190.3" font-family="Helvetica,sans-Serif" font-size="14.00">ESP32&#45;S3:3V3</text>
<text text-anchor="start" x="388" y="-190.3" font-family="Helvetica,sans-Serif" font-size="14.00"> &#160;&#160;&#160;&#160;&#160;&#160;&#160;&#160;&#160;</text>
<text text-anchor="start" x="439" y="-190.3" font-family="Helvetica,sans-Serif" font-size="14.00">Joystick:VCC</text>
<polygon fill="#000000" stroke="transparent" points="257,-182.5 257,-184.5 530,-184.5 530,-182.5 257,-182.5"/>
<polygon fill="#ff0000" stroke="transparent" points="257,-180.5 257,-182.5 530,-182.5 530,-180.5 257,-180.5"/>
<polygon fill="#000000" stroke="transparent" points="257,-178.5 257,-180.5 530,-180.5 530,-178.5 257,-178.5"/>
<text text-anchor="start" x="269.5" y="-165.3" font-family="Helvetica,sans-Serif" font-size="14.00">ESP32&#45;S3:GND</text>
<text text-anchor="start" x="388" y="-165.3" font-family="Helvetica,sans-Serif" font-size="14.00"> &#160;&#160;&#160;&#160;&#160;&#160;&#160;&#160;&#160;</text>
<text text-anchor="start" x="438" y="-165.3" font-family="Helvetica,sans-Serif" font-size="14.00">Joystick:GND</text>
<polygon fill="#000000" stroke="transparent" points="257,-157.5 257,-159.5 530,-159.5 530,-157.5 257,-157.5"/>
<polygon fill="#000000" stroke="transparent" points="257,-155.5 257,-157.5 530,-157.5 530,-155.5 257,-155.5"/>
<polygon fill="#000000" stroke="transparent" points="257,-153.5 257,-155.5 530,-155.5 530,-153.5 257,-153.5"/>
<text text-anchor="start" x="319" y="-140.3" font-family="Helvetica,sans-Serif" font-size="14.00"> </text>
</g>
<!-- ESP32&#45;S3&#45;&#45;JOYSTICK_HARNESS -->
<g id="edge1" class="edge">
<title>ESP32&#45;S3:e&#45;&#45;JOYSTICK_HARNESS:w</title>
<path fill="none" stroke="#000000" stroke-width="2" d="M76,-228.5C156.1,-228.5 176.1,-229.5 256,-229.5"/>
<path fill="none" stroke="#ffff00" stroke-width="2" d="M76,-230.5C156,-230.5 176,-231.5 256,-231.5"/>
<path fill="none" stroke="#000000" stroke-width="2" d="M76,-232.5C155.9,-232.5 175.9,-233.5 256,-233.5"/>
</g>
<!-- ESP32&#45;S3&#45;&#45;JOYSTICK_HARNESS -->
<g id="edge3" class="edge">
<title>ESP32&#45;S3:e&#45;&#45;JOYSTICK_HARNESS:w</title>
<path fill="none" stroke="#000000" stroke-width="2" d="M76,-205.5C155.9,-205.5 175.9,-204.5 256,-204.5"/>
<path fill="none" stroke="#ff8000" stroke-width="2" d="M76,-207.5C156,-207.5 176,-206.5 256,-206.5"/>
<path fill="none" stroke="#000000" stroke-width="2" d="M76,-209.5C156.1,-209.5 176.1,-208.5 256,-208.5"/>
</g>
<!-- ESP32&#45;S3&#45;&#45;JOYSTICK_HARNESS -->
<g id="edge5" class="edge">
<title>ESP32&#45;S3:e&#45;&#45;JOYSTICK_HARNESS:w</title>
<path fill="none" stroke="#000000" stroke-width="2" d="M76,-158.5C158.03,-159.16 176.94,-180.16 256,-179.5"/>
<path fill="none" stroke="#ff0000" stroke-width="2" d="M76,-160.5C156.54,-160.5 175.46,-181.5 256,-181.5"/>
<path fill="none" stroke="#000000" stroke-width="2" d="M76,-162.5C155.06,-161.84 173.97,-182.84 256,-183.5"/>
</g>
<!-- ESP32&#45;S3&#45;&#45;JOYSTICK_HARNESS -->
<g id="edge7" class="edge">
<title>ESP32&#45;S3:e&#45;&#45;JOYSTICK_HARNESS:w</title>
<path fill="none" stroke="#000000" stroke-width="2" d="M76,-135.5C157.85,-136.08 176.97,-155.08 256,-154.5"/>
<path fill="none" stroke="#000000" stroke-width="2" d="M76,-137.5C156.44,-137.5 175.56,-156.5 256,-156.5"/>
<path fill="none" stroke="#000000" stroke-width="2" d="M76,-139.5C155.03,-138.92 174.15,-157.92 256,-158.5"/>
</g>
<!-- VIBMOTOR_HARNESS -->
<g id="node5" class="node">
<title>VIBMOTOR_HARNESS</title>
<polygon fill="#f7f9fb" stroke="black" points="566,-111 220,-111 220,0 566,0 566,-111"/>
<polygon fill="#e8e8e8" stroke="transparent" points="220,-87.5 220,-110.5 566,-110.5 566,-87.5 220,-87.5"/>
<polygon fill="none" stroke="black" points="220,-87.5 220,-110.5 566,-110.5 566,-87.5 220,-87.5"/>
<text text-anchor="start" x="317.5" y="-95.3" font-family="Helvetica,sans-Serif" font-size="14.00">VIBMOTOR_HARNESS</text>
<text text-anchor="start" x="282" y="-74.3" font-family="Helvetica,sans-Serif" font-size="14.00"> </text>
<text text-anchor="start" x="222" y="-55.3" font-family="Helvetica,sans-Serif" font-size="14.00">ESP32&#45;S3:GPIO42</text>
<text text-anchor="start" x="351" y="-55.3" font-family="Helvetica,sans-Serif" font-size="14.00"> &#160;&#160;&#160;&#160;&#160;&#160;&#160;&#160;&#160;</text>
<text text-anchor="start" x="401" y="-55.3" font-family="Helvetica,sans-Serif" font-size="14.00">Vibration Motor:SIGNAL</text>
<polygon fill="#000000" stroke="transparent" points="220,-47.5 220,-49.5 566,-49.5 566,-47.5 220,-47.5"/>
<polygon fill="#00ff00" stroke="transparent" points="220,-45.5 220,-47.5 566,-47.5 566,-45.5 220,-45.5"/>
<polygon fill="#000000" stroke="transparent" points="220,-43.5 220,-45.5 566,-45.5 566,-43.5 220,-43.5"/>
<text text-anchor="start" x="232.5" y="-30.3" font-family="Helvetica,sans-Serif" font-size="14.00">ESP32&#45;S3:GND</text>
<text text-anchor="start" x="351" y="-30.3" font-family="Helvetica,sans-Serif" font-size="14.00"> &#160;&#160;&#160;&#160;&#160;&#160;&#160;&#160;&#160;</text>
<text text-anchor="start" x="411.5" y="-30.3" font-family="Helvetica,sans-Serif" font-size="14.00">Vibration Motor:GND</text>
<polygon fill="#000000" stroke="transparent" points="220,-22.5 220,-24.5 566,-24.5 566,-22.5 220,-22.5"/>
<polygon fill="#000000" stroke="transparent" points="220,-20.5 220,-22.5 566,-22.5 566,-20.5 220,-20.5"/>
<polygon fill="#000000" stroke="transparent" points="220,-18.5 220,-20.5 566,-20.5 566,-18.5 220,-18.5"/>
<text text-anchor="start" x="282" y="-5.3" font-family="Helvetica,sans-Serif" font-size="14.00"> </text>
</g>
<!-- ESP32&#45;S3&#45;&#45;VIBMOTOR_HARNESS -->
<g id="edge9" class="edge">
<title>ESP32&#45;S3:e&#45;&#45;VIBMOTOR_HARNESS:w</title>
<path fill="none" stroke="#000000" stroke-width="2" d="M76,-181.5C162.39,-183.96 129.72,-46.96 220,-44.5"/>
<path fill="none" stroke="#00ff00" stroke-width="2" d="M76,-183.5C164.34,-183.5 131.66,-46.5 220,-46.5"/>
<path fill="none" stroke="#000000" stroke-width="2" d="M76,-185.5C166.28,-183.04 133.61,-46.04 220,-48.5"/>
</g>
<!-- ESP32&#45;S3&#45;&#45;VIBMOTOR_HARNESS -->
<g id="edge11" class="edge">
<title>ESP32&#45;S3:e&#45;&#45;VIBMOTOR_HARNESS:w</title>
<path fill="none" stroke="#000000" stroke-width="2" d="M76,-135.5C156.21,-137.85 135.85,-21.85 220,-19.5"/>
<path fill="none" stroke="#000000" stroke-width="2" d="M76,-137.5C158.18,-137.5 137.82,-21.5 220,-21.5"/>
<path fill="none" stroke="#000000" stroke-width="2" d="M76,-139.5C160.15,-137.15 139.79,-21.15 220,-23.5"/>
</g>
<!-- Joystick -->
<g id="node2" class="node">
<title>Joystick</title>
<polygon fill="#f7f9fb" stroke="black" points="798.5,-264 736.5,-264 736.5,-149 798.5,-149 798.5,-264"/>
<polygon fill="#f2eafc" stroke="transparent" points="736.5,-149 736.5,-264 798.5,-264 798.5,-149 736.5,-149"/>
<polygon fill="#dcc4f5" stroke="transparent" points="736.5,-240.5 736.5,-263.5 798.5,-263.5 798.5,-240.5 736.5,-240.5"/>
<polygon fill="none" stroke="black" points="736.5,-240.5 736.5,-263.5 798.5,-263.5 798.5,-240.5 736.5,-240.5"/>
<text text-anchor="start" x="740.5" y="-248.3" font-family="Helvetica,sans-Serif" font-size="14.00">Joystick</text>
<polygon fill="none" stroke="black" points="736.5,-217.5 736.5,-240.5 798.5,-240.5 798.5,-217.5 736.5,-217.5"/>
<text text-anchor="start" x="752.5" y="-225.3" font-family="Helvetica,sans-Serif" font-size="14.00">VRX</text>
<polygon fill="none" stroke="black" points="736.5,-194.5 736.5,-217.5 798.5,-217.5 798.5,-194.5 736.5,-194.5"/>
<text text-anchor="start" x="753.5" y="-202.3" font-family="Helvetica,sans-Serif" font-size="14.00">VRY</text>
<polygon fill="none" stroke="black" points="736.5,-171.5 736.5,-194.5 798.5,-194.5 798.5,-171.5 736.5,-171.5"/>
<text text-anchor="start" x="752.5" y="-179.3" font-family="Helvetica,sans-Serif" font-size="14.00">VCC</text>
<polygon fill="none" stroke="black" points="736.5,-148.5 736.5,-171.5 798.5,-171.5 798.5,-148.5 736.5,-148.5"/>
<text text-anchor="start" x="751.5" y="-156.3" font-family="Helvetica,sans-Serif" font-size="14.00">GND</text>
</g>
<!-- Vibration Motor -->
<g id="node3" class="node">
<title>Vibration Motor</title>
<polygon fill="#f7f9fb" stroke="black" points="825,-81 710,-81 710,-12 825,-12 825,-81"/>
<polygon fill="#fff5e3" stroke="transparent" points="710,-12 710,-81 825,-81 825,-12 710,-12"/>
<polygon fill="#ffdf9e" stroke="transparent" points="710.5,-57.5 710.5,-80.5 825.5,-80.5 825.5,-57.5 710.5,-57.5"/>
<polygon fill="none" stroke="black" points="710.5,-57.5 710.5,-80.5 825.5,-80.5 825.5,-57.5 710.5,-57.5"/>
<text text-anchor="start" x="714.5" y="-65.3" font-family="Helvetica,sans-Serif" font-size="14.00">Vibration Motor</text>
<polygon fill="none" stroke="black" points="710.5,-34.5 710.5,-57.5 825.5,-57.5 825.5,-34.5 710.5,-34.5"/>
<text text-anchor="start" x="742" y="-42.3" font-family="Helvetica,sans-Serif" font-size="14.00">SIGNAL</text>
<polygon fill="none" stroke="black" points="710.5,-11.5 710.5,-34.5 825.5,-34.5 825.5,-11.5 710.5,-11.5"/>
<text text-anchor="start" x="752" y="-19.3" font-family="Helvetica,sans-Serif" font-size="14.00">GND</text>
</g>
<!-- JOYSTICK_HARNESS&#45;&#45;Joystick -->
<g id="edge2" class="edge">
<title>JOYSTICK_HARNESS:e&#45;&#45;Joystick:w</title>
<path fill="none" stroke="#000000" stroke-width="2" d="M531,-229.5C621.72,-229.51 644.43,-227.51 735.5,-227.5"/>
<path fill="none" stroke="#ffff00" stroke-width="2" d="M531,-231.5C621.89,-231.5 644.61,-229.5 735.5,-229.5"/>
<path fill="none" stroke="#000000" stroke-width="2" d="M531,-233.5C622.07,-233.49 644.78,-231.49 735.5,-231.5"/>
</g>
<!-- JOYSTICK_HARNESS&#45;&#45;Joystick -->
<g id="edge4" class="edge">
<title>JOYSTICK_HARNESS:e&#45;&#45;Joystick:w</title>
<path fill="none" stroke="#000000" stroke-width="2" d="M531,-204.5C621.8,-204.5 644.52,-203.5 735.5,-203.5"/>
<path fill="none" stroke="#ff8000" stroke-width="2" d="M531,-206.5C621.89,-206.5 644.61,-205.5 735.5,-205.5"/>
<path fill="none" stroke="#000000" stroke-width="2" d="M531,-208.5C621.98,-208.5 644.7,-207.5 735.5,-207.5"/>
</g>
<!-- JOYSTICK_HARNESS&#45;&#45;Joystick -->
<g id="edge6" class="edge">
<title>JOYSTICK_HARNESS:e&#45;&#45;Joystick:w</title>
<path fill="none" stroke="#000000" stroke-width="2" d="M531,-179.5C621.98,-179.5 644.7,-180.5 735.5,-180.5"/>
<path fill="none" stroke="#ff0000" stroke-width="2" d="M531,-181.5C621.89,-181.5 644.61,-182.5 735.5,-182.5"/>
<path fill="none" stroke="#000000" stroke-width="2" d="M531,-183.5C621.8,-183.5 644.52,-184.5 735.5,-184.5"/>
</g>
<!-- JOYSTICK_HARNESS&#45;&#45;Joystick -->
<g id="edge8" class="edge">
<title>JOYSTICK_HARNESS:e&#45;&#45;Joystick:w</title>
<path fill="none" stroke="#000000" stroke-width="2" d="M531,-154.5C622.16,-154.52 644.86,-157.52 735.5,-157.5"/>
<path fill="none" stroke="#000000" stroke-width="2" d="M531,-156.5C621.9,-156.5 644.6,-159.5 735.5,-159.5"/>
<path fill="none" stroke="#000000" stroke-width="2" d="M531,-158.5C621.64,-158.48 644.34,-161.48 735.5,-161.5"/>
</g>
<!-- VIBMOTOR_HARNESS&#45;&#45;Vibration Motor -->
<g id="edge10" class="edge">
<title>VIBMOTOR_HARNESS:e&#45;&#45;Vibration Motor:w</title>
<path fill="none" stroke="#000000" stroke-width="2" d="M566,-44.5C629.88,-44.5 645.87,-43.5 710,-43.5"/>
<path fill="none" stroke="#00ff00" stroke-width="2" d="M566,-46.5C630,-46.5 646,-45.5 710,-45.5"/>
<path fill="none" stroke="#000000" stroke-width="2" d="M566,-48.5C630.13,-48.5 646.12,-47.5 710,-47.5"/>
</g>
<!-- VIBMOTOR_HARNESS&#45;&#45;Vibration Motor -->
<g id="edge12" class="edge">
<title>VIBMOTOR_HARNESS:e&#45;&#45;Vibration Motor:w</title>
<path fill="none" stroke="#000000" stroke-width="2" d="M566,-19.5C630.13,-19.5 646.12,-20.5 710,-20.5"/>
<path fill="none" stroke="#000000" stroke-width="2" d="M566,-21.5C630,-21.5 646,-22.5 710,-22.5"/>
<path fill="none" stroke="#000000" stroke-width="2" d="M566,-23.5C629.88,-23.5 645.87,-24.5 710,-24.5"/>
</g>
</g>
</svg>
